REM DIRINDEX 1\2,1\3,1\4
REM DIRNAME folder01,folder02,folder03,folder04
TITLE ""
FILE "St_141.mp3" MP3
  TRACK 01 AUDIO
    TITLE "3:cjc148_2438"
    INDEX 01 00:00:00
  TRACK 02 AUDIO
    TITLE "3:cjc148_2439"
    INDEX 01 00:06:31
  TRACK 03 AUDIO
    TITLE "3:cjc148_2440"
    INDEX 01 00:14:51
  TRACK 04 AUDIO
    TITLE "3:cjc148_2441"
    INDEX 01 00:19:24
  TRACK 05 AUDIO
    TITLE "3:cjc148_2442"
    INDEX 01 00:23:24
